# xmcd
#
# Track frame offsets:
#	150
#	13521
#	28433
#	42880
#	55783
#	70449
#	82901
#	96446
#	108518
#	120888
#	134133
#	149063
#	162801
#	175499
#	189489
#	204050
#	216599
#	226700
#	241107
#	256469
#	267937
#
# Disc length: 3765 seconds
#
# Revision: 0
# Processed by: cddbd v1.5.2PL0 Copyright (c) Steve Scherf et al.
# Submitted via: audiograbber 1.83.01
#
DISCID=300eb315
DTITLE=—борник - 101 Songs That Won World War II CD1 - Wish Me Luck
DYEAR=1900
DGENRE=
TTITLE0=Gracie Fields - Wish Me Luck
TTITLE1=Al Bowlly - Love Is The Sweetest Thing
TTITLE2=Anne Shelton - A Nightinggale Sang In Berkeley Square
TTITLE3=George Formby - When Im Cleaning Windows
TTITLE4=Vera Lynn - The White Cliffs Of Dover
TTITLE5=Flanagan and Allen - Run Rabbit
TTITLE6=Ambrose - Adolf
TTITLE7=The Andrews Sisters - Boogie Woogie Bugle Boy
TTITLE8=The Ink Spots - Whispering Grass
TTITLE9=Arthur Askey - Kiss Me Goodnight Seargant Major
TTITLE10=Ray Eberle - Perfidia
TTITLE11=Joe Loss - There Always Be An England
TTITLE12=Anne Shelton - Lili Marlene
TTITLE13=Geraldo - We Must All Stick Together
TTITLE14=Bob Eberly and Helen O'Connell - Yours
TTITLE15=Nat Gonella - Its A Pair Of WingsFfor Me
TTITLE16=Carmen Miranda - I Yi,Yi,Yi,Yi
TTITLE17=Artie Shaw - Begin The Beguine
TTITLE18=Bob Eberly and Helen O'Connell - Amapola
TTITLE19=Tony Pastor - Obey Your Air Raid Warden
TTITLE20=Ivy Benson - The Homecoming Waltz
EXTD=
EXTT0=
EXTT1=
EXTT2=
EXTT3=
EXTT4=
EXTT5=
EXTT6=
EXTT7=
EXTT8=
EXTT9=
EXTT10=
EXTT11=
EXTT12=
EXTT13=
EXTT14=
EXTT15=
EXTT16=
EXTT17=
EXTT18=
EXTT19=
EXTT20=
PLAYORDER=
